<svg xml:space="preserve" viewBox="0 0 96.75 96.5" y="0px" x="0px" version="1.1" xmlns:xlink="http://www.w3.org/1999/xlink" xmlns="http://www.w3.org/2000/svg" style="max-height: 500px" width="96.75" height="96.5"><g><polygon points="63.352,16.942 59.04,16.942 59.04,22.272 53.606,22.272 53.606,26.687 59.04,26.687 59.04,32.019 63.089,32.019    63.089,26.687 68.694,26.687 68.694,22.272 63.352,22.272"/><path d="M63.769,8.89C49.43,5.04,36.613,10.485,31.53,14.856c-5.412,4.655-5.773,15.108-5.773,15.108l0.097,5.485   c0,0-6.448,7.313-6.833,10.489s4.84,3.272,4.84,3.272l-0.605,6.255l3.465,1.54l-2.887,0.577c0,0,1.154,3.272,0.385,5.197   c-0.771,1.924-0.771,9.238,5.004,7.506c5.773-1.732,9.238,22.134,9.238,22.134l33.873-19.054c0,0-2.213-6.544-2.406-8.95   c-0.191-2.405,9.816-16.745,11.163-26.079C82.437,29.002,78.106,12.739,63.769,8.89z M32.187,36.132   c-0.938,0.661-1.766,0.994-2.471,0.994c-0.176,0-0.343-0.021-0.502-0.062c-0.717-0.185-0.993-0.715-1.022-0.775   c-0.146-0.298-0.021-0.657,0.277-0.802c0.292-0.141,0.641-0.026,0.792,0.257c0.014,0.021,0.092,0.125,0.284,0.165   c0.257,0.051,0.844,0.021,1.948-0.758c0.271-0.191,0.646-0.126,0.837,0.144C32.521,35.567,32.456,35.941,32.187,36.132z    M61.085,35.914c-6.356,0-11.509-5.152-11.509-11.508c0-6.356,5.152-11.508,11.509-11.508c6.355,0,11.507,5.152,11.507,11.508   C72.592,30.762,67.44,35.914,61.085,35.914z"/></g><text font-family="'Helvetica Neue', Helvetica, Arial-Unicode, Arial, Sans-serif" font-weight="bold" font-size="5px" fill="#000000" y="115" x="0">Created by IconTrack</text><text font-family="'Helvetica Neue', Helvetica, Arial-Unicode, Arial, Sans-serif" font-weight="bold" font-size="5px" fill="#000000" y="120" x="0">from the Noun Project</text></svg>